<?xml version="1.0" encoding="utf-8"?>
<!-- Generator: Adobe Illustrator 26.4.1, SVG Export Plug-In . SVG Version: 6.00 Build 0)  -->
<svg version="1.1" id="Layer_1" xmlns="http://www.w3.org/2000/svg" xmlns:xlink="http://www.w3.org/1999/xlink" x="0px" y="0px"
	 viewBox="0 0 90.72 91" style="enable-background:new 0 0 90.72 91;" xml:space="preserve">
<style type="text/css">
	.st0{fill:#C84534;}
	.st1{fill:#E86E2E;}
	.st2{fill:#DBB766;}
	.st3{fill:#EF9871;}
	.st4{fill:#754881;}
</style>
<g>
	<path class="st0" d="M76.96,21.28c-22.88,1.21-35,1.89-56.65,0.55c-6.46-0.4-7.39,3.73-6.55,8.24c1.58,8.55,4.13,16.32,7.77,26.07
		c3.37,9.04,9.23,10.55,17.04,11.27c6.62,0.62,21.49,0.17,26.84-0.19c8.58-0.55,17.07-5.76,20.97-16.01
		c2.91-7.67,3.25-12.94,3.92-20.15c0.74-8.11-6.35-10.18-13.32-9.81L76.96,21.28z M74.67,45.45C74.55,47.69,72.15,58.62,62.32,61
		c-8.14,1.98-18.65,1.52-27.01-0.68c-2.93-0.78-5.52-2.92-6.66-5.98c-0.89-2.39-1.02-6.54-0.37-9.62c0.52-2.46,2.4-4.44,5.4-5.2
		C42.05,37.4,64.56,37.5,69,38.7C73.44,39.92,74.85,42.33,74.67,45.45L74.67,45.45z"/>
	<path class="st1" d="M35.77,41.11c7.13-1.77,26.28-1.68,30.05-0.67c3.77,1.01,4.77,2.85,4.37,6.14c-0.23,1.85-0.86,7.89-9.69,11.08
		c-7.48,2.7-19.26,1.64-23.37,0.71c-2.52-0.57-4.68-2.77-5.65-5.32c-0.75-1.98-0.98-5.07-0.21-7.56c0.65-2.09,1.92-3.73,4.48-4.37
		H35.77z"/>
	<path class="st1" d="M0.42,29.2c0-6.95,9.57-8.48,10.73-0.11c0.83,5.94,2.85,14.56,7,26.38c1.55,4.44,5.98,9.75-1.45,9.09
		c-3.68-0.32-7.22-0.61-10.22-1.21c-3-0.6-6.15-1.82-6.05-7.08C0.52,51.01,0.42,32.54,0.42,29.2z"/>
	<path class="st2" d="M7.86,65.56c13.32,1.3,21.7,3.14,32.26,3.82c2.73,0.18,5.53,1.24,5.46,4.02c-0.07,2.78-1.81,3.96-4.73,4.13
		c-5.86,0.36-20.13,0.79-33.2-0.29c-3.52-0.29-7.21-2.34-7.21-5.78c0-5.06,2.04-6.45,7.44-5.92L7.86,65.56z"/>
	<path class="st0" d="M5.68,78.82c4.82,0.1,9.1,0.87,11.89,1c6.63,0.31,6.63,10.63,0.66,10.63c-3.43,0-9.77,0.05-12.47,0
		c-7.37-0.15-7.08-11.78-0.07-11.63H5.68z"/>
	<path class="st3" d="M29.24,79.74c2.77-0.54,7.19-0.64,10.6-0.02c6.55,1.19,5.45,10.74-0.54,10.74c-3.43,0-6.71,0.03-9.41,0
		c-7.51-0.07-7.54-9.37-0.66-10.7L29.24,79.74z"/>
	<path class="st4" d="M46.18,77.71c1.02-9.43,11.21-10.01,11.89-4.59c0.45,3.66,1.07,8.14,1.21,10.44c0.3,5.17-3.08,6.76-6.92,6.89
		c-3.48,0.12-5.51-1.52-6.07-4.78c-0.45-2.69-0.4-5.38-0.12-7.96H46.18z"/>
	<path class="st1" d="M60.56,75.02c0,3.31,0.6,8.12,0.99,10.17c0.39,2.05,1.72,5.18,5.39,5.26c4.16,0.09,11.95,0.03,14.94,0
		c4.46-0.05,8.27-1.26,8.39-6.73c0.09-3.95-0.03-6.22-0.9-9.63c-0.67-2.63-2-4.28-5.83-4.82c-3.82-0.54-12.88-0.34-16.42,0.05
		c-3.53,0.39-6.58,1.26-6.58,5.69H60.56z"/>
	<path class="st3" d="M79.32,66.14c1.11,1.77,7.24,1.84,9.14-0.1c2.91-2.98,2.12-11.44,0.14-11.9c-1.75-0.41-2.59,3.78-5.19,6.43
		C81.39,62.62,78.02,64.06,79.32,66.14L79.32,66.14z"/>
	<path class="st4" d="M7.67,0.6c-1.68,0-7.24,1.07-7.24,7.13c0,6.05-0.14,6.63,0,8.9c0.14,2.26,2.12,4.96,5.91,4.96
		c3.43,0,6.81-0.59,6.58-4.99c-0.14-2.72-0.32-6,0.06-9.02c0.44-3.51-0.2-6.98-5.31-6.98V0.6z"/>
	<path class="st3" d="M25.87,0.59c-4.98,0.07-8.49,0.84-10.33,5.64c-0.86,2.23-0.86,5.18-0.37,8.29c0.41,2.63,1.93,4.68,6.1,5.24
		c5.3,0.71,9.52,0.88,13.83,0.58c3.13-0.21,6.24-0.89,8.77-4.38c2.53-3.49,3.86-6.1,5.05-8.62c1.19-2.52,1.93-6.81-2.89-6.75
		C41.2,0.65,30.56,0.53,25.87,0.59z"/>
	<path class="st2" d="M52.09,20.15c3.44,0,10.03,0,15.98-0.48c4.1-0.33,8.02-1.57,6.25-5.91c-1.13-2.75-4.51-7.25-6.66-10.19
		C65.5,0.64,58.44-1.38,55,3.19c-1.82,2.42-4.64,6-7.09,10.48c-1.57,2.87-1.69,6.48,4.16,6.48H52.09z"/>
	<path class="st1" d="M76.07,0.59c2.34,0.08,6.52-0.09,8.84,0c2.32,0.09,5.36,1.68,5.36,5.45v8.87c0,2.78-3.08,7.97-8.72,3.81
		C77.4,15.66,72.83,7.88,71.98,5.8c-1.17-2.83,0-5.35,4.08-5.22L76.07,0.59z"/>
</g>
</svg>
